<svg width="512" height="250" viewBox="0 0 512 250" fill="none" xmlns="http://www.w3.org/2000/svg">
<rect opacity="0.9" x="90" y="67" width="6" height="15" rx="3" fill="#56A3A6"/>
<rect opacity="0.9" x="90" y="168" width="6" height="15" rx="3" fill="#56A3A6"/>
<rect opacity="0.9" x="49.6602" y="122.029" width="5.97895" height="14.2" rx="2.98947" transform="rotate(90.0728 49.6602 122.029)" fill="#56A3A6"/>
<path d="M82.0104 136.99L75.2221 131.51L111.543 94.0688L124.154 94.0687L82.0104 136.99Z" fill="#0F4C5C"/>
<path d="M82.0104 136.99L75.2221 131.51L111.543 94.0688L124.154 94.0687L82.0104 136.99Z" fill="#0F4C5C"/>
<path d="M82.5369 161.268L73.5948 161.288L73.5814 149.707L82.5372 140.695L82.5369 161.268Z" fill="#56A3A6"/>
<path d="M82.5369 161.268L73.5948 161.288L73.5814 149.707L82.5372 140.695L82.5369 161.268Z" fill="#56A3A6"/>
<path d="M74 87H83V136.28L74 145V87Z" fill="#0F4C5C"/>
<path d="M74 87H83V136.28L74 145V87Z" fill="#0F4C5C"/>
<path d="M149.48 115.08C151.528 115.08 153.352 115.48 154.952 116.28C156.584 117.08 157.864 118.312 158.792 119.976C159.72 121.608 160.184 123.72 160.184 126.312V141H154.184V127.08C154.184 124.808 153.64 123.112 152.552 121.992C151.496 120.872 150.008 120.312 148.088 120.312C146.68 120.312 145.432 120.6 144.344 121.176C143.256 121.752 142.408 122.616 141.8 123.768C141.224 124.888 140.936 126.312 140.936 128.04V141H134.936V105.384H140.936V122.28L139.64 120.168C140.536 118.536 141.832 117.288 143.528 116.424C145.256 115.528 147.24 115.08 149.48 115.08ZM167.795 141V115.368H173.507V122.424L172.835 120.36C173.603 118.632 174.803 117.32 176.435 116.424C178.099 115.528 180.163 115.08 182.627 115.08V120.792C182.371 120.728 182.131 120.696 181.907 120.696C181.683 120.664 181.459 120.648 181.235 120.648C178.963 120.648 177.155 121.32 175.811 122.664C174.467 123.976 173.795 125.944 173.795 128.568V141H167.795ZM199.003 141.336C196.379 141.336 194.043 140.776 191.995 139.656C189.947 138.504 188.331 136.936 187.147 134.952C185.963 132.968 185.371 130.712 185.371 128.184C185.371 125.624 185.963 123.368 187.147 121.416C188.331 119.432 189.947 117.88 191.995 116.76C194.043 115.64 196.379 115.08 199.003 115.08C201.659 115.08 204.011 115.64 206.059 116.76C208.139 117.88 209.755 119.416 210.907 121.368C212.091 123.32 212.683 125.592 212.683 128.184C212.683 130.712 212.091 132.968 210.907 134.952C209.755 136.936 208.139 138.504 206.059 139.656C204.011 140.776 201.659 141.336 199.003 141.336ZM199.003 136.2C200.475 136.2 201.787 135.88 202.939 135.24C204.091 134.6 204.987 133.672 205.627 132.456C206.299 131.24 206.635 129.816 206.635 128.184C206.635 126.52 206.299 125.096 205.627 123.912C204.987 122.696 204.091 121.768 202.939 121.128C201.787 120.488 200.491 120.168 199.051 120.168C197.579 120.168 196.267 120.488 195.115 121.128C193.995 121.768 193.099 122.696 192.427 123.912C191.755 125.096 191.419 126.52 191.419 128.184C191.419 129.816 191.755 131.24 192.427 132.456C193.099 133.672 193.995 134.6 195.115 135.24C196.267 135.88 197.563 136.2 199.003 136.2ZM232.964 115.08C235.012 115.08 236.836 115.48 238.436 116.28C240.068 117.08 241.348 118.312 242.276 119.976C243.204 121.608 243.668 123.72 243.668 126.312V141H237.668V127.08C237.668 124.808 237.124 123.112 236.036 121.992C234.98 120.872 233.492 120.312 231.572 120.312C230.164 120.312 228.916 120.6 227.828 121.176C226.74 121.752 225.892 122.616 225.284 123.768C224.708 124.888 224.42 126.312 224.42 128.04V141H218.42V115.368H224.132V122.28L223.124 120.168C224.02 118.536 225.316 117.288 227.012 116.424C228.74 115.528 230.724 115.08 232.964 115.08ZM262.847 141.336C260.223 141.336 257.887 140.776 255.839 139.656C253.791 138.504 252.175 136.936 250.991 134.952C249.807 132.968 249.215 130.712 249.215 128.184C249.215 125.624 249.807 123.368 250.991 121.416C252.175 119.432 253.791 117.88 255.839 116.76C257.887 115.64 260.223 115.08 262.847 115.08C265.503 115.08 267.855 115.64 269.903 116.76C271.983 117.88 273.599 119.416 274.751 121.368C275.935 123.32 276.527 125.592 276.527 128.184C276.527 130.712 275.935 132.968 274.751 134.952C273.599 136.936 271.983 138.504 269.903 139.656C267.855 140.776 265.503 141.336 262.847 141.336ZM262.847 136.2C264.319 136.2 265.631 135.88 266.783 135.24C267.935 134.6 268.831 133.672 269.471 132.456C270.143 131.24 270.479 129.816 270.479 128.184C270.479 126.52 270.143 125.096 269.471 123.912C268.831 122.696 267.935 121.768 266.783 121.128C265.631 120.488 264.335 120.168 262.895 120.168C261.423 120.168 260.111 120.488 258.959 121.128C257.839 121.768 256.943 122.696 256.271 123.912C255.599 125.096 255.263 126.52 255.263 128.184C255.263 129.816 255.599 131.24 256.271 132.456C256.943 133.672 257.839 134.6 258.959 135.24C260.111 135.88 261.407 136.2 262.847 136.2ZM290.184 141.336C288.04 141.336 285.976 141.064 283.992 140.52C282.04 139.944 280.488 139.256 279.336 138.456L281.64 133.896C282.792 134.632 284.168 135.24 285.768 135.72C287.368 136.2 288.968 136.44 290.568 136.44C292.456 136.44 293.816 136.184 294.648 135.672C295.512 135.16 295.944 134.472 295.944 133.608C295.944 132.904 295.656 132.376 295.08 132.024C294.504 131.64 293.752 131.352 292.824 131.16C291.896 130.968 290.856 130.792 289.704 130.632C288.584 130.472 287.448 130.264 286.296 130.008C285.176 129.72 284.152 129.32 283.224 128.808C282.296 128.264 281.544 127.544 280.968 126.648C280.392 125.752 280.104 124.568 280.104 123.096C280.104 121.464 280.568 120.056 281.496 118.872C282.424 117.656 283.72 116.728 285.384 116.088C287.08 115.416 289.08 115.08 291.384 115.08C293.112 115.08 294.856 115.272 296.616 115.656C298.376 116.04 299.832 116.584 300.984 117.288L298.68 121.848C297.464 121.112 296.232 120.616 294.984 120.36C293.768 120.072 292.552 119.928 291.336 119.928C289.512 119.928 288.152 120.2 287.256 120.744C286.392 121.288 285.96 121.976 285.96 122.808C285.96 123.576 286.248 124.152 286.824 124.536C287.4 124.92 288.152 125.224 289.08 125.448C290.008 125.672 291.032 125.864 292.152 126.024C293.304 126.152 294.44 126.36 295.56 126.648C296.68 126.936 297.704 127.336 298.632 127.848C299.592 128.328 300.36 129.016 300.936 129.912C301.512 130.808 301.8 131.976 301.8 133.416C301.8 135.016 301.32 136.408 300.36 137.592C299.432 138.776 298.104 139.704 296.376 140.376C294.648 141.016 292.584 141.336 290.184 141.336Z" fill="#0F4C5C"/>
<path d="M307.167 141V110.2H311.875L325.339 132.684H322.875L336.119 110.2H340.827L340.871 141H335.459L335.415 118.692H336.559L325.295 137.48H322.743L311.303 118.692H312.623V141H307.167ZM359.707 141.308C357.096 141.308 354.808 140.795 352.843 139.768C350.907 138.712 349.396 137.275 348.311 135.456C347.255 133.637 346.727 131.569 346.727 129.252C346.727 126.905 347.24 124.837 348.267 123.048C349.323 121.229 350.76 119.807 352.579 118.78C354.427 117.753 356.524 117.24 358.871 117.24C361.159 117.24 363.197 117.739 364.987 118.736C366.776 119.733 368.184 121.141 369.211 122.96C370.237 124.779 370.751 126.92 370.751 129.384C370.751 129.619 370.736 129.883 370.707 130.176C370.707 130.469 370.692 130.748 370.663 131.012H351.083V127.36H367.759L365.603 128.504C365.632 127.155 365.353 125.967 364.767 124.94C364.18 123.913 363.373 123.107 362.347 122.52C361.349 121.933 360.191 121.64 358.871 121.64C357.521 121.64 356.333 121.933 355.307 122.52C354.309 123.107 353.517 123.928 352.931 124.984C352.373 126.011 352.095 127.228 352.095 128.636V129.516C352.095 130.924 352.417 132.171 353.063 133.256C353.708 134.341 354.617 135.177 355.791 135.764C356.964 136.351 358.313 136.644 359.839 136.644C361.159 136.644 362.347 136.439 363.403 136.028C364.459 135.617 365.397 134.972 366.219 134.092L369.167 137.48C368.111 138.712 366.776 139.665 365.163 140.34C363.579 140.985 361.76 141.308 359.707 141.308ZM376.034 141V117.504H381.27V123.972L380.654 122.08C381.358 120.496 382.458 119.293 383.954 118.472C385.479 117.651 387.371 117.24 389.63 117.24V122.476C389.395 122.417 389.175 122.388 388.97 122.388C388.764 122.359 388.559 122.344 388.354 122.344C386.271 122.344 384.614 122.96 383.382 124.192C382.15 125.395 381.534 127.199 381.534 129.604V141H376.034ZM404.861 141.308C402.397 141.308 400.197 140.795 398.261 139.768C396.354 138.712 394.858 137.275 393.773 135.456C392.687 133.637 392.145 131.569 392.145 129.252C392.145 126.905 392.687 124.837 393.773 123.048C394.858 121.229 396.354 119.807 398.261 118.78C400.197 117.753 402.397 117.24 404.861 117.24C407.149 117.24 409.158 117.709 410.889 118.648C412.649 119.557 413.983 120.907 414.893 122.696L410.669 125.16C409.965 124.045 409.099 123.224 408.073 122.696C407.075 122.168 405.99 121.904 404.817 121.904C403.467 121.904 402.25 122.197 401.165 122.784C400.079 123.371 399.229 124.221 398.613 125.336C397.997 126.421 397.689 127.727 397.689 129.252C397.689 130.777 397.997 132.097 398.613 133.212C399.229 134.297 400.079 135.133 401.165 135.72C402.25 136.307 403.467 136.6 404.817 136.6C405.99 136.6 407.075 136.336 408.073 135.808C409.099 135.28 409.965 134.459 410.669 133.344L414.893 135.808C413.983 137.568 412.649 138.932 410.889 139.9C409.158 140.839 407.149 141.308 404.861 141.308ZM433.797 141.18C432.813 141.18 431.871 141.042 430.971 140.766C430.071 140.478 429.357 140.112 428.829 139.668L429.639 137.85C430.143 138.246 430.767 138.576 431.511 138.84C432.255 139.104 433.017 139.236 433.797 139.236C434.457 139.236 434.991 139.164 435.399 139.02C435.807 138.876 436.107 138.684 436.299 138.444C436.491 138.192 436.587 137.91 436.587 137.598C436.587 137.214 436.449 136.908 436.173 136.68C435.897 136.44 435.537 136.254 435.093 136.122C434.661 135.978 434.175 135.846 433.635 135.726C433.107 135.606 432.573 135.468 432.033 135.312C431.505 135.144 431.019 134.934 430.575 134.682C430.143 134.418 429.789 134.07 429.513 133.638C429.237 133.206 429.099 132.654 429.099 131.982C429.099 131.298 429.279 130.674 429.639 130.11C430.011 129.534 430.569 129.078 431.313 128.742C432.069 128.394 433.023 128.22 434.175 128.22C434.931 128.22 435.681 128.316 436.425 128.508C437.169 128.7 437.817 128.976 438.369 129.336L437.631 131.154C437.067 130.818 436.485 130.572 435.885 130.416C435.285 130.248 434.709 130.164 434.157 130.164C433.509 130.164 432.981 130.242 432.573 130.398C432.177 130.554 431.883 130.758 431.691 131.01C431.511 131.262 431.421 131.55 431.421 131.874C431.421 132.258 431.553 132.57 431.817 132.81C432.093 133.038 432.447 133.218 432.879 133.35C433.323 133.482 433.815 133.614 434.355 133.746C434.895 133.866 435.429 134.004 435.957 134.16C436.497 134.316 436.983 134.52 437.415 134.772C437.859 135.024 438.213 135.366 438.477 135.798C438.753 136.23 438.891 136.776 438.891 137.436C438.891 138.108 438.705 138.732 438.333 139.308C437.973 139.872 437.415 140.328 436.659 140.676C435.903 141.012 434.949 141.18 433.797 141.18ZM446.324 141.126C445.544 141.126 444.83 140.946 444.182 140.586C443.546 140.226 443.036 139.686 442.652 138.966C442.28 138.234 442.094 137.31 442.094 136.194C442.094 135.066 442.274 134.142 442.634 133.422C443.006 132.702 443.51 132.168 444.146 131.82C444.782 131.46 445.508 131.28 446.324 131.28C447.272 131.28 448.106 131.484 448.826 131.892C449.558 132.3 450.134 132.87 450.554 133.602C450.986 134.334 451.202 135.198 451.202 136.194C451.202 137.19 450.986 138.06 450.554 138.804C450.134 139.536 449.558 140.106 448.826 140.514C448.106 140.922 447.272 141.126 446.324 141.126ZM440.996 144.492V131.388H443.138V133.656L443.066 136.212L443.246 138.768V144.492H440.996ZM446.072 139.2C446.612 139.2 447.092 139.08 447.512 138.84C447.944 138.6 448.286 138.252 448.538 137.796C448.79 137.34 448.916 136.806 448.916 136.194C448.916 135.57 448.79 135.036 448.538 134.592C448.286 134.136 447.944 133.788 447.512 133.548C447.092 133.308 446.612 133.188 446.072 133.188C445.532 133.188 445.046 133.308 444.614 133.548C444.182 133.788 443.84 134.136 443.588 134.592C443.336 135.036 443.21 135.57 443.21 136.194C443.21 136.806 443.336 137.34 443.588 137.796C443.84 138.252 444.182 138.6 444.614 138.84C445.046 139.08 445.532 139.2 446.072 139.2ZM451.488 141L457.158 128.4H459.462L465.15 141H462.702L457.824 129.642H458.76L453.9 141H451.488ZM454.098 138.084L454.728 136.248H461.532L462.162 138.084H454.098ZM467.854 141.126C467.446 141.126 467.098 140.988 466.81 140.712C466.522 140.424 466.378 140.064 466.378 139.632C466.378 139.176 466.522 138.816 466.81 138.552C467.098 138.276 467.446 138.138 467.854 138.138C468.262 138.138 468.61 138.276 468.898 138.552C469.186 138.816 469.33 139.176 469.33 139.632C469.33 140.064 469.186 140.424 468.898 140.712C468.61 140.988 468.262 141.126 467.854 141.126Z" fill="#56A3A6"/>
<path d="M136.596 162V152.2H137.632V162H136.596ZM149.795 154.58C150.392 154.58 150.91 154.697 151.349 154.93C151.797 155.154 152.142 155.499 152.385 155.966C152.637 156.433 152.763 157.021 152.763 157.73V162H151.769V157.828C151.769 157.053 151.582 156.47 151.209 156.078C150.845 155.677 150.327 155.476 149.655 155.476C149.151 155.476 148.712 155.583 148.339 155.798C147.975 156.003 147.69 156.307 147.485 156.708C147.289 157.1 147.191 157.576 147.191 158.136V162H146.197V157.828C146.197 157.053 146.01 156.47 145.637 156.078C145.263 155.677 144.741 155.476 144.069 155.476C143.574 155.476 143.14 155.583 142.767 155.798C142.393 156.003 142.104 156.307 141.899 156.708C141.703 157.1 141.605 157.576 141.605 158.136V162H140.611V154.65H141.563V156.638L141.409 156.288C141.633 155.756 141.992 155.341 142.487 155.042C142.991 154.734 143.583 154.58 144.265 154.58C144.983 154.58 145.595 154.762 146.099 155.126C146.603 155.481 146.929 156.017 147.079 156.736L146.687 156.582C146.901 155.985 147.279 155.504 147.821 155.14C148.371 154.767 149.029 154.58 149.795 154.58ZM159.252 162.07C158.618 162.07 158.044 161.925 157.53 161.636C157.017 161.337 156.606 160.913 156.298 160.362C156 159.802 155.85 159.121 155.85 158.318C155.85 157.515 156 156.839 156.298 156.288C156.597 155.728 157.003 155.303 157.516 155.014C158.03 154.725 158.608 154.58 159.252 154.58C159.952 154.58 160.578 154.739 161.128 155.056C161.688 155.364 162.127 155.803 162.444 156.372C162.762 156.932 162.92 157.581 162.92 158.318C162.92 159.065 162.762 159.718 162.444 160.278C162.127 160.838 161.688 161.277 161.128 161.594C160.578 161.911 159.952 162.07 159.252 162.07ZM155.458 164.716V154.65H156.41V156.862L156.312 158.332L156.452 159.816V164.716H155.458ZM159.182 161.188C159.705 161.188 160.172 161.071 160.582 160.838C160.993 160.595 161.32 160.259 161.562 159.83C161.805 159.391 161.926 158.887 161.926 158.318C161.926 157.749 161.805 157.249 161.562 156.82C161.32 156.391 160.993 156.055 160.582 155.812C160.172 155.569 159.705 155.448 159.182 155.448C158.66 155.448 158.188 155.569 157.768 155.812C157.358 156.055 157.031 156.391 156.788 156.82C156.555 157.249 156.438 157.749 156.438 158.318C156.438 158.887 156.555 159.391 156.788 159.83C157.031 160.259 157.358 160.595 157.768 160.838C158.188 161.071 158.66 161.188 159.182 161.188ZM167.943 162.07C167.233 162.07 166.594 161.911 166.025 161.594C165.465 161.267 165.021 160.824 164.695 160.264C164.368 159.695 164.205 159.046 164.205 158.318C164.205 157.581 164.368 156.932 164.695 156.372C165.021 155.812 165.465 155.373 166.025 155.056C166.585 154.739 167.224 154.58 167.943 154.58C168.671 154.58 169.315 154.739 169.875 155.056C170.444 155.373 170.887 155.812 171.205 156.372C171.531 156.932 171.695 157.581 171.695 158.318C171.695 159.046 171.531 159.695 171.205 160.264C170.887 160.824 170.444 161.267 169.875 161.594C169.305 161.911 168.661 162.07 167.943 162.07ZM167.943 161.188C168.475 161.188 168.946 161.071 169.357 160.838C169.767 160.595 170.089 160.259 170.323 159.83C170.565 159.391 170.687 158.887 170.687 158.318C170.687 157.739 170.565 157.235 170.323 156.806C170.089 156.377 169.767 156.045 169.357 155.812C168.946 155.569 168.479 155.448 167.957 155.448C167.434 155.448 166.967 155.569 166.557 155.812C166.146 156.045 165.819 156.377 165.577 156.806C165.334 157.235 165.213 157.739 165.213 158.318C165.213 158.887 165.334 159.391 165.577 159.83C165.819 160.259 166.146 160.595 166.557 160.838C166.967 161.071 167.429 161.188 167.943 161.188ZM173.724 162V154.65H174.676V156.652L174.578 156.302C174.783 155.742 175.129 155.317 175.614 155.028C176.099 154.729 176.701 154.58 177.42 154.58V155.546C177.383 155.546 177.345 155.546 177.308 155.546C177.271 155.537 177.233 155.532 177.196 155.532C176.421 155.532 175.815 155.77 175.376 156.246C174.937 156.713 174.718 157.38 174.718 158.248V162H173.724ZM181.872 162.07C181.181 162.07 180.649 161.883 180.276 161.51C179.903 161.137 179.716 160.609 179.716 159.928V153.026H180.71V159.872C180.71 160.301 180.817 160.633 181.032 160.866C181.256 161.099 181.573 161.216 181.984 161.216C182.423 161.216 182.787 161.09 183.076 160.838L183.426 161.552C183.23 161.729 182.992 161.86 182.712 161.944C182.441 162.028 182.161 162.07 181.872 162.07ZM178.4 155.476V154.65H182.95V155.476H178.4ZM189.842 162V160.376L189.8 160.11V157.394C189.8 156.769 189.622 156.288 189.268 155.952C188.922 155.616 188.404 155.448 187.714 155.448C187.238 155.448 186.785 155.527 186.356 155.686C185.926 155.845 185.562 156.055 185.264 156.316L184.816 155.574C185.189 155.257 185.637 155.014 186.16 154.846C186.682 154.669 187.233 154.58 187.812 154.58C188.764 154.58 189.496 154.818 190.01 155.294C190.532 155.761 190.794 156.475 190.794 157.436V162H189.842ZM187.308 162.07C186.757 162.07 186.276 161.981 185.866 161.804C185.464 161.617 185.156 161.365 184.942 161.048C184.727 160.721 184.62 160.348 184.62 159.928C184.62 159.545 184.708 159.2 184.886 158.892C185.072 158.575 185.371 158.323 185.782 158.136C186.202 157.94 186.762 157.842 187.462 157.842H189.996V158.584H187.49C186.78 158.584 186.286 158.71 186.006 158.962C185.735 159.214 185.6 159.527 185.6 159.9C185.6 160.32 185.763 160.656 186.09 160.908C186.416 161.16 186.874 161.286 187.462 161.286C188.022 161.286 188.502 161.16 188.904 160.908C189.314 160.647 189.613 160.273 189.8 159.788L190.024 160.474C189.837 160.959 189.51 161.347 189.044 161.636C188.586 161.925 188.008 162.07 187.308 162.07ZM202.677 154.58C203.275 154.58 203.793 154.697 204.231 154.93C204.679 155.154 205.025 155.499 205.267 155.966C205.519 156.433 205.645 157.021 205.645 157.73V162H204.651V157.828C204.651 157.053 204.465 156.47 204.091 156.078C203.727 155.677 203.209 155.476 202.537 155.476C202.033 155.476 201.595 155.583 201.221 155.798C200.857 156.003 200.573 156.307 200.367 156.708C200.171 157.1 200.073 157.576 200.073 158.136V162H199.079V157.828C199.079 157.053 198.893 156.47 198.519 156.078C198.146 155.677 197.623 155.476 196.951 155.476C196.457 155.476 196.023 155.583 195.649 155.798C195.276 156.003 194.987 156.307 194.781 156.708C194.585 157.1 194.487 157.576 194.487 158.136V162H193.493V154.65H194.445V156.638L194.291 156.288C194.515 155.756 194.875 155.341 195.369 155.042C195.873 154.734 196.466 154.58 197.147 154.58C197.866 154.58 198.477 154.762 198.981 155.126C199.485 155.481 199.812 156.017 199.961 156.736L199.569 156.582C199.784 155.985 200.162 155.504 200.703 155.14C201.254 154.767 201.912 154.58 202.677 154.58ZM211.337 162.07C210.628 162.07 209.988 161.911 209.419 161.594C208.859 161.267 208.416 160.824 208.089 160.264C207.762 159.695 207.599 159.046 207.599 158.318C207.599 157.581 207.762 156.932 208.089 156.372C208.416 155.812 208.859 155.373 209.419 155.056C209.979 154.739 210.618 154.58 211.337 154.58C212.065 154.58 212.709 154.739 213.269 155.056C213.838 155.373 214.282 155.812 214.599 156.372C214.926 156.932 215.089 157.581 215.089 158.318C215.089 159.046 214.926 159.695 214.599 160.264C214.282 160.824 213.838 161.267 213.269 161.594C212.7 161.911 212.056 162.07 211.337 162.07ZM211.337 161.188C211.869 161.188 212.34 161.071 212.751 160.838C213.162 160.595 213.484 160.259 213.717 159.83C213.96 159.391 214.081 158.887 214.081 158.318C214.081 157.739 213.96 157.235 213.717 156.806C213.484 156.377 213.162 156.045 212.751 155.812C212.34 155.569 211.874 155.448 211.351 155.448C210.828 155.448 210.362 155.569 209.951 155.812C209.54 156.045 209.214 156.377 208.971 156.806C208.728 157.235 208.607 157.739 208.607 158.318C208.607 158.887 208.728 159.391 208.971 159.83C209.214 160.259 209.54 160.595 209.951 160.838C210.362 161.071 210.824 161.188 211.337 161.188ZM219.092 162.07C218.486 162.07 217.912 161.986 217.37 161.818C216.829 161.641 216.404 161.421 216.096 161.16L216.544 160.376C216.843 160.6 217.226 160.796 217.692 160.964C218.159 161.123 218.649 161.202 219.162 161.202C219.862 161.202 220.366 161.095 220.674 160.88C220.982 160.656 221.136 160.362 221.136 159.998C221.136 159.727 221.048 159.517 220.87 159.368C220.702 159.209 220.478 159.093 220.198 159.018C219.918 158.934 219.606 158.864 219.26 158.808C218.915 158.752 218.57 158.687 218.224 158.612C217.888 158.537 217.58 158.43 217.3 158.29C217.02 158.141 216.792 157.94 216.614 157.688C216.446 157.436 216.362 157.1 216.362 156.68C216.362 156.279 216.474 155.919 216.698 155.602C216.922 155.285 217.249 155.037 217.678 154.86C218.117 154.673 218.649 154.58 219.274 154.58C219.75 154.58 220.226 154.645 220.702 154.776C221.178 154.897 221.57 155.061 221.878 155.266L221.444 156.064C221.118 155.84 220.768 155.681 220.394 155.588C220.021 155.485 219.648 155.434 219.274 155.434C218.612 155.434 218.122 155.551 217.804 155.784C217.496 156.008 217.342 156.297 217.342 156.652C217.342 156.932 217.426 157.151 217.594 157.31C217.772 157.469 218 157.595 218.28 157.688C218.57 157.772 218.882 157.842 219.218 157.898C219.564 157.954 219.904 158.024 220.24 158.108C220.586 158.183 220.898 158.29 221.178 158.43C221.468 158.561 221.696 158.752 221.864 159.004C222.042 159.247 222.13 159.569 222.13 159.97C222.13 160.399 222.009 160.773 221.766 161.09C221.533 161.398 221.188 161.641 220.73 161.818C220.282 161.986 219.736 162.07 219.092 162.07ZM229.508 162L226.246 154.65H227.282L230.278 161.468H229.788L232.826 154.65H233.806L230.53 162H229.508ZM239.594 162V160.376L239.552 160.11V157.394C239.552 156.769 239.374 156.288 239.02 155.952C238.674 155.616 238.156 155.448 237.466 155.448C236.99 155.448 236.537 155.527 236.108 155.686C235.678 155.845 235.314 156.055 235.016 156.316L234.568 155.574C234.941 155.257 235.389 155.014 235.912 154.846C236.434 154.669 236.985 154.58 237.564 154.58C238.516 154.58 239.248 154.818 239.762 155.294C240.284 155.761 240.546 156.475 240.546 157.436V162H239.594ZM237.06 162.07C236.509 162.07 236.028 161.981 235.618 161.804C235.216 161.617 234.908 161.365 234.694 161.048C234.479 160.721 234.372 160.348 234.372 159.928C234.372 159.545 234.46 159.2 234.638 158.892C234.824 158.575 235.123 158.323 235.534 158.136C235.954 157.94 236.514 157.842 237.214 157.842H239.748V158.584H237.242C236.532 158.584 236.038 158.71 235.758 158.962C235.487 159.214 235.352 159.527 235.352 159.9C235.352 160.32 235.515 160.656 235.842 160.908C236.168 161.16 236.626 161.286 237.214 161.286C237.774 161.286 238.254 161.16 238.656 160.908C239.066 160.647 239.365 160.273 239.552 159.788L239.776 160.474C239.589 160.959 239.262 161.347 238.796 161.636C238.338 161.925 237.76 162.07 237.06 162.07ZM243.245 162V151.612H244.239V162H243.245ZM250.001 162.07C249.292 162.07 248.652 161.911 248.083 161.594C247.523 161.267 247.08 160.824 246.753 160.264C246.426 159.695 246.263 159.046 246.263 158.318C246.263 157.581 246.426 156.932 246.753 156.372C247.08 155.812 247.523 155.373 248.083 155.056C248.643 154.739 249.282 154.58 250.001 154.58C250.729 154.58 251.373 154.739 251.933 155.056C252.502 155.373 252.946 155.812 253.263 156.372C253.59 156.932 253.753 157.581 253.753 158.318C253.753 159.046 253.59 159.695 253.263 160.264C252.946 160.824 252.502 161.267 251.933 161.594C251.364 161.911 250.72 162.07 250.001 162.07ZM250.001 161.188C250.533 161.188 251.004 161.071 251.415 160.838C251.826 160.595 252.148 160.259 252.381 159.83C252.624 159.391 252.745 158.887 252.745 158.318C252.745 157.739 252.624 157.235 252.381 156.806C252.148 156.377 251.826 156.045 251.415 155.812C251.004 155.569 250.538 155.448 250.015 155.448C249.492 155.448 249.026 155.569 248.615 155.812C248.204 156.045 247.878 156.377 247.635 156.806C247.392 157.235 247.271 157.739 247.271 158.318C247.271 158.887 247.392 159.391 247.635 159.83C247.878 160.259 248.204 160.595 248.615 160.838C249.026 161.071 249.488 161.188 250.001 161.188ZM255.782 162V154.65H256.734V156.652L256.636 156.302C256.842 155.742 257.187 155.317 257.672 155.028C258.158 154.729 258.76 154.58 259.478 154.58V155.546C259.441 155.546 259.404 155.546 259.366 155.546C259.329 155.537 259.292 155.532 259.254 155.532C258.48 155.532 257.873 155.77 257.434 156.246C256.996 156.713 256.776 157.38 256.776 158.248V162H255.782ZM260.663 164.044L261.279 161.454L261.391 162.056C261.176 162.056 260.994 161.986 260.845 161.846C260.705 161.706 260.635 161.524 260.635 161.3C260.635 161.076 260.705 160.894 260.845 160.754C260.994 160.614 261.172 160.544 261.377 160.544C261.592 160.544 261.764 160.619 261.895 160.768C262.035 160.917 262.105 161.095 262.105 161.3C262.105 161.375 262.1 161.449 262.091 161.524C262.082 161.599 262.063 161.683 262.035 161.776C262.007 161.869 261.97 161.981 261.923 162.112L261.335 164.044H260.663ZM271.018 162.07C270.252 162.07 269.58 161.911 269.002 161.594C268.423 161.267 267.97 160.824 267.644 160.264C267.317 159.695 267.154 159.046 267.154 158.318C267.154 157.59 267.308 156.946 267.616 156.386C267.933 155.826 268.362 155.387 268.904 155.07C269.454 154.743 270.07 154.58 270.752 154.58C271.442 154.58 272.054 154.739 272.586 155.056C273.127 155.364 273.552 155.803 273.86 156.372C274.168 156.932 274.322 157.581 274.322 158.318C274.322 158.365 274.317 158.416 274.308 158.472C274.308 158.519 274.308 158.57 274.308 158.626H267.91V157.884H273.776L273.384 158.178C273.384 157.646 273.267 157.175 273.034 156.764C272.81 156.344 272.502 156.017 272.11 155.784C271.718 155.551 271.265 155.434 270.752 155.434C270.248 155.434 269.795 155.551 269.394 155.784C268.992 156.017 268.68 156.344 268.456 156.764C268.232 157.184 268.12 157.665 268.12 158.206V158.36C268.12 158.92 268.241 159.415 268.484 159.844C268.736 160.264 269.081 160.595 269.52 160.838C269.968 161.071 270.476 161.188 271.046 161.188C271.494 161.188 271.909 161.109 272.292 160.95C272.684 160.791 273.02 160.549 273.3 160.222L273.86 160.866C273.533 161.258 273.122 161.557 272.628 161.762C272.142 161.967 271.606 162.07 271.018 162.07ZM275.02 162L278.128 157.968L278.114 158.458L275.16 154.65H276.28L278.702 157.8L278.282 157.786L280.704 154.65H281.796L278.814 158.5L278.828 157.968L281.964 162H280.83L278.268 158.64L278.66 158.696L276.14 162H275.02ZM287.412 162.07C286.778 162.07 286.204 161.925 285.69 161.636C285.177 161.337 284.766 160.913 284.458 160.362C284.16 159.802 284.01 159.121 284.01 158.318C284.01 157.515 284.16 156.839 284.458 156.288C284.757 155.728 285.163 155.303 285.676 155.014C286.19 154.725 286.768 154.58 287.412 154.58C288.112 154.58 288.738 154.739 289.288 155.056C289.848 155.364 290.287 155.803 290.604 156.372C290.922 156.932 291.08 157.581 291.08 158.318C291.08 159.065 290.922 159.718 290.604 160.278C290.287 160.838 289.848 161.277 289.288 161.594C288.738 161.911 288.112 162.07 287.412 162.07ZM283.618 164.716V154.65H284.57V156.862L284.472 158.332L284.612 159.816V164.716H283.618ZM287.342 161.188C287.865 161.188 288.332 161.071 288.742 160.838C289.153 160.595 289.48 160.259 289.722 159.83C289.965 159.391 290.086 158.887 290.086 158.318C290.086 157.749 289.965 157.249 289.722 156.82C289.48 156.391 289.153 156.055 288.742 155.812C288.332 155.569 287.865 155.448 287.342 155.448C286.82 155.448 286.348 155.569 285.928 155.812C285.518 156.055 285.191 156.391 284.948 156.82C284.715 157.249 284.598 157.749 284.598 158.318C284.598 158.887 284.715 159.391 284.948 159.83C285.191 160.259 285.518 160.595 285.928 160.838C286.348 161.071 286.82 161.188 287.342 161.188ZM296.103 162.07C295.393 162.07 294.754 161.911 294.185 161.594C293.625 161.267 293.181 160.824 292.855 160.264C292.528 159.695 292.365 159.046 292.365 158.318C292.365 157.581 292.528 156.932 292.855 156.372C293.181 155.812 293.625 155.373 294.185 155.056C294.745 154.739 295.384 154.58 296.103 154.58C296.831 154.58 297.475 154.739 298.035 155.056C298.604 155.373 299.047 155.812 299.365 156.372C299.691 156.932 299.855 157.581 299.855 158.318C299.855 159.046 299.691 159.695 299.365 160.264C299.047 160.824 298.604 161.267 298.035 161.594C297.465 161.911 296.821 162.07 296.103 162.07ZM296.103 161.188C296.635 161.188 297.106 161.071 297.517 160.838C297.927 160.595 298.249 160.259 298.483 159.83C298.725 159.391 298.847 158.887 298.847 158.318C298.847 157.739 298.725 157.235 298.483 156.806C298.249 156.377 297.927 156.045 297.517 155.812C297.106 155.569 296.639 155.448 296.117 155.448C295.594 155.448 295.127 155.569 294.717 155.812C294.306 156.045 293.979 156.377 293.737 156.806C293.494 157.235 293.373 157.739 293.373 158.318C293.373 158.887 293.494 159.391 293.737 159.83C293.979 160.259 294.306 160.595 294.717 160.838C295.127 161.071 295.589 161.188 296.103 161.188ZM301.884 162V154.65H302.836V156.652L302.738 156.302C302.943 155.742 303.289 155.317 303.774 155.028C304.259 154.729 304.861 154.58 305.58 154.58V155.546C305.543 155.546 305.505 155.546 305.468 155.546C305.431 155.537 305.393 155.532 305.356 155.532C304.581 155.532 303.975 155.77 303.536 156.246C303.097 156.713 302.878 157.38 302.878 158.248V162H301.884ZM310.032 162.07C309.342 162.07 308.81 161.883 308.436 161.51C308.063 161.137 307.876 160.609 307.876 159.928V153.026H308.87V159.872C308.87 160.301 308.978 160.633 309.192 160.866C309.416 161.099 309.734 161.216 310.144 161.216C310.583 161.216 310.947 161.09 311.236 160.838L311.586 161.552C311.39 161.729 311.152 161.86 310.872 161.944C310.602 162.028 310.322 162.07 310.032 162.07ZM306.56 155.476V154.65H311.11V155.476H306.56ZM318.002 162V160.376L317.96 160.11V157.394C317.96 156.769 317.782 156.288 317.428 155.952C317.082 155.616 316.564 155.448 315.874 155.448C315.398 155.448 314.945 155.527 314.516 155.686C314.086 155.845 313.722 156.055 313.424 156.316L312.976 155.574C313.349 155.257 313.797 155.014 314.32 154.846C314.842 154.669 315.393 154.58 315.972 154.58C316.924 154.58 317.656 154.818 318.17 155.294C318.692 155.761 318.954 156.475 318.954 157.436V162H318.002ZM315.468 162.07C314.917 162.07 314.436 161.981 314.026 161.804C313.624 161.617 313.316 161.365 313.102 161.048C312.887 160.721 312.78 160.348 312.78 159.928C312.78 159.545 312.868 159.2 313.046 158.892C313.232 158.575 313.531 158.323 313.942 158.136C314.362 157.94 314.922 157.842 315.622 157.842H318.156V158.584H315.65C314.94 158.584 314.446 158.71 314.166 158.962C313.895 159.214 313.76 159.527 313.76 159.9C313.76 160.32 313.923 160.656 314.25 160.908C314.576 161.16 315.034 161.286 315.622 161.286C316.182 161.286 316.662 161.16 317.064 160.908C317.474 160.647 317.773 160.273 317.96 159.788L318.184 160.474C317.997 160.959 317.67 161.347 317.204 161.636C316.746 161.925 316.168 162.07 315.468 162.07ZM330.838 154.58C331.435 154.58 331.953 154.697 332.392 154.93C332.84 155.154 333.185 155.499 333.428 155.966C333.68 156.433 333.806 157.021 333.806 157.73V162H332.812V157.828C332.812 157.053 332.625 156.47 332.252 156.078C331.888 155.677 331.37 155.476 330.698 155.476C330.194 155.476 329.755 155.583 329.382 155.798C329.018 156.003 328.733 156.307 328.528 156.708C328.332 157.1 328.234 157.576 328.234 158.136V162H327.24V157.828C327.24 157.053 327.053 156.47 326.68 156.078C326.306 155.677 325.784 155.476 325.112 155.476C324.617 155.476 324.183 155.583 323.81 155.798C323.436 156.003 323.147 156.307 322.942 156.708C322.746 157.1 322.648 157.576 322.648 158.136V162H321.654V154.65H322.606V156.638L322.452 156.288C322.676 155.756 323.035 155.341 323.53 155.042C324.034 154.734 324.626 154.58 325.308 154.58C326.026 154.58 326.638 154.762 327.142 155.126C327.646 155.481 327.972 156.017 328.122 156.736L327.73 156.582C327.944 155.985 328.322 155.504 328.864 155.14C329.414 154.767 330.072 154.58 330.838 154.58ZM339.497 162.07C338.788 162.07 338.149 161.911 337.579 161.594C337.019 161.267 336.576 160.824 336.249 160.264C335.923 159.695 335.759 159.046 335.759 158.318C335.759 157.581 335.923 156.932 336.249 156.372C336.576 155.812 337.019 155.373 337.579 155.056C338.139 154.739 338.779 154.58 339.497 154.58C340.225 154.58 340.869 154.739 341.429 155.056C341.999 155.373 342.442 155.812 342.759 156.372C343.086 156.932 343.249 157.581 343.249 158.318C343.249 159.046 343.086 159.695 342.759 160.264C342.442 160.824 341.999 161.267 341.429 161.594C340.86 161.911 340.216 162.07 339.497 162.07ZM339.497 161.188C340.029 161.188 340.501 161.071 340.911 160.838C341.322 160.595 341.644 160.259 341.877 159.83C342.12 159.391 342.241 158.887 342.241 158.318C342.241 157.739 342.12 157.235 341.877 156.806C341.644 156.377 341.322 156.045 340.911 155.812C340.501 155.569 340.034 155.448 339.511 155.448C338.989 155.448 338.522 155.569 338.111 155.812C337.701 156.045 337.374 156.377 337.131 156.806C336.889 157.235 336.767 157.739 336.767 158.318C336.767 158.887 336.889 159.391 337.131 159.83C337.374 160.259 337.701 160.595 338.111 160.838C338.522 161.071 338.984 161.188 339.497 161.188ZM347.253 162.07C346.646 162.07 346.072 161.986 345.531 161.818C344.989 161.641 344.565 161.421 344.257 161.16L344.705 160.376C345.003 160.6 345.386 160.796 345.853 160.964C346.319 161.123 346.809 161.202 347.323 161.202C348.023 161.202 348.527 161.095 348.835 160.88C349.143 160.656 349.297 160.362 349.297 159.998C349.297 159.727 349.208 159.517 349.031 159.368C348.863 159.209 348.639 159.093 348.359 159.018C348.079 158.934 347.766 158.864 347.421 158.808C347.075 158.752 346.73 158.687 346.385 158.612C346.049 158.537 345.741 158.43 345.461 158.29C345.181 158.141 344.952 157.94 344.775 157.688C344.607 157.436 344.523 157.1 344.523 156.68C344.523 156.279 344.635 155.919 344.859 155.602C345.083 155.285 345.409 155.037 345.839 154.86C346.277 154.673 346.809 154.58 347.435 154.58C347.911 154.58 348.387 154.645 348.863 154.776C349.339 154.897 349.731 155.061 350.039 155.266L349.605 156.064C349.278 155.84 348.928 155.681 348.555 155.588C348.181 155.485 347.808 155.434 347.435 155.434C346.772 155.434 346.282 155.551 345.965 155.784C345.657 156.008 345.503 156.297 345.503 156.652C345.503 156.932 345.587 157.151 345.755 157.31C345.932 157.469 346.161 157.595 346.441 157.688C346.73 157.772 347.043 157.842 347.379 157.898C347.724 157.954 348.065 158.024 348.401 158.108C348.746 158.183 349.059 158.29 349.339 158.43C349.628 158.561 349.857 158.752 350.025 159.004C350.202 159.247 350.291 159.569 350.291 159.97C350.291 160.399 350.169 160.773 349.927 161.09C349.693 161.398 349.348 161.641 348.891 161.818C348.443 161.986 347.897 162.07 347.253 162.07ZM358.831 162.07C358.103 162.07 357.449 161.911 356.871 161.594C356.301 161.267 355.853 160.824 355.527 160.264C355.2 159.695 355.037 159.046 355.037 158.318C355.037 157.581 355.2 156.932 355.527 156.372C355.853 155.812 356.301 155.373 356.871 155.056C357.449 154.739 358.103 154.58 358.831 154.58C359.456 154.58 360.021 154.701 360.525 154.944C361.029 155.187 361.425 155.551 361.715 156.036L360.973 156.54C360.721 156.167 360.408 155.891 360.035 155.714C359.661 155.537 359.255 155.448 358.817 155.448C358.294 155.448 357.823 155.569 357.403 155.812C356.983 156.045 356.651 156.377 356.409 156.806C356.166 157.235 356.045 157.739 356.045 158.318C356.045 158.897 356.166 159.401 356.409 159.83C356.651 160.259 356.983 160.595 357.403 160.838C357.823 161.071 358.294 161.188 358.817 161.188C359.255 161.188 359.661 161.099 360.035 160.922C360.408 160.745 360.721 160.474 360.973 160.11L361.715 160.614C361.425 161.09 361.029 161.454 360.525 161.706C360.021 161.949 359.456 162.07 358.831 162.07ZM366.54 162.07C365.831 162.07 365.192 161.911 364.622 161.594C364.062 161.267 363.619 160.824 363.292 160.264C362.966 159.695 362.802 159.046 362.802 158.318C362.802 157.581 362.966 156.932 363.292 156.372C363.619 155.812 364.062 155.373 364.622 155.056C365.182 154.739 365.822 154.58 366.54 154.58C367.268 154.58 367.912 154.739 368.472 155.056C369.042 155.373 369.485 155.812 369.802 156.372C370.129 156.932 370.292 157.581 370.292 158.318C370.292 159.046 370.129 159.695 369.802 160.264C369.485 160.824 369.042 161.267 368.472 161.594C367.903 161.911 367.259 162.07 366.54 162.07ZM366.54 161.188C367.072 161.188 367.544 161.071 367.954 160.838C368.365 160.595 368.687 160.259 368.92 159.83C369.163 159.391 369.284 158.887 369.284 158.318C369.284 157.739 369.163 157.235 368.92 156.806C368.687 156.377 368.365 156.045 367.954 155.812C367.544 155.569 367.077 155.448 366.554 155.448C366.032 155.448 365.565 155.569 365.154 155.812C364.744 156.045 364.417 156.377 364.174 156.806C363.932 157.235 363.81 157.739 363.81 158.318C363.81 158.887 363.932 159.391 364.174 159.83C364.417 160.259 364.744 160.595 365.154 160.838C365.565 161.071 366.027 161.188 366.54 161.188ZM376.074 154.58C376.671 154.58 377.194 154.697 377.642 154.93C378.099 155.154 378.454 155.499 378.706 155.966C378.967 156.433 379.098 157.021 379.098 157.73V162H378.104V157.828C378.104 157.053 377.908 156.47 377.516 156.078C377.133 155.677 376.592 155.476 375.892 155.476C375.369 155.476 374.912 155.583 374.52 155.798C374.137 156.003 373.838 156.307 373.624 156.708C373.418 157.1 373.316 157.576 373.316 158.136V162H372.322V154.65H373.274V156.666L373.12 156.288C373.353 155.756 373.726 155.341 374.24 155.042C374.753 154.734 375.364 154.58 376.074 154.58ZM381.95 162V153.726C381.95 153.073 382.142 152.545 382.524 152.144C382.907 151.743 383.458 151.542 384.176 151.542C384.456 151.542 384.727 151.579 384.988 151.654C385.25 151.729 385.469 151.845 385.646 152.004L385.31 152.746C385.17 152.625 385.007 152.536 384.82 152.48C384.634 152.415 384.433 152.382 384.218 152.382C383.798 152.382 383.476 152.499 383.252 152.732C383.028 152.965 382.916 153.311 382.916 153.768V154.888L382.944 155.35V162H381.95ZM380.634 155.476V154.65H385.184V155.476H380.634ZM386.528 162V154.65H387.522V162H386.528ZM387.032 153.026C386.827 153.026 386.654 152.956 386.514 152.816C386.374 152.676 386.304 152.508 386.304 152.312C386.304 152.116 386.374 151.953 386.514 151.822C386.654 151.682 386.827 151.612 387.032 151.612C387.238 151.612 387.41 151.677 387.55 151.808C387.69 151.939 387.76 152.102 387.76 152.298C387.76 152.503 387.69 152.676 387.55 152.816C387.42 152.956 387.247 153.026 387.032 153.026ZM394.92 162V160.376L394.878 160.11V157.394C394.878 156.769 394.7 156.288 394.346 155.952C394 155.616 393.482 155.448 392.792 155.448C392.316 155.448 391.863 155.527 391.434 155.686C391.004 155.845 390.64 156.055 390.342 156.316L389.894 155.574C390.267 155.257 390.715 155.014 391.238 154.846C391.76 154.669 392.311 154.58 392.89 154.58C393.842 154.58 394.574 154.818 395.088 155.294C395.61 155.761 395.872 156.475 395.872 157.436V162H394.92ZM392.386 162.07C391.835 162.07 391.354 161.981 390.944 161.804C390.542 161.617 390.234 161.365 390.02 161.048C389.805 160.721 389.698 160.348 389.698 159.928C389.698 159.545 389.786 159.2 389.964 158.892C390.15 158.575 390.449 158.323 390.86 158.136C391.28 157.94 391.84 157.842 392.54 157.842H395.074V158.584H392.568C391.858 158.584 391.364 158.71 391.084 158.962C390.813 159.214 390.678 159.527 390.678 159.9C390.678 160.32 390.841 160.656 391.168 160.908C391.494 161.16 391.952 161.286 392.54 161.286C393.1 161.286 393.58 161.16 393.982 160.908C394.392 160.647 394.691 160.273 394.878 159.788L395.102 160.474C394.915 160.959 394.588 161.347 394.122 161.636C393.664 161.925 393.086 162.07 392.386 162.07ZM402.324 154.58C402.921 154.58 403.444 154.697 403.892 154.93C404.349 155.154 404.704 155.499 404.956 155.966C405.217 156.433 405.348 157.021 405.348 157.73V162H404.354V157.828C404.354 157.053 404.158 156.47 403.766 156.078C403.383 155.677 402.842 155.476 402.142 155.476C401.619 155.476 401.162 155.583 400.77 155.798C400.387 156.003 400.088 156.307 399.874 156.708C399.668 157.1 399.566 157.576 399.566 158.136V162H398.572V154.65H399.524V156.666L399.37 156.288C399.603 155.756 399.976 155.341 400.49 155.042C401.003 154.734 401.614 154.58 402.324 154.58ZM407.234 162V161.342L412.134 155.14L412.344 155.476H407.318V154.65H413.128V155.294L408.242 161.51L407.99 161.174H413.226V162H407.234ZM419.789 162V160.376L419.747 160.11V157.394C419.747 156.769 419.57 156.288 419.215 155.952C418.87 155.616 418.352 155.448 417.661 155.448C417.185 155.448 416.732 155.527 416.303 155.686C415.874 155.845 415.51 156.055 415.211 156.316L414.763 155.574C415.136 155.257 415.584 155.014 416.107 154.846C416.63 154.669 417.18 154.58 417.759 154.58C418.711 154.58 419.444 154.818 419.957 155.294C420.48 155.761 420.741 156.475 420.741 157.436V162H419.789ZM417.255 162.07C416.704 162.07 416.224 161.981 415.813 161.804C415.412 161.617 415.104 161.365 414.889 161.048C414.674 160.721 414.567 160.348 414.567 159.928C414.567 159.545 414.656 159.2 414.833 158.892C415.02 158.575 415.318 158.323 415.729 158.136C416.149 157.94 416.709 157.842 417.409 157.842H419.943V158.584H417.437C416.728 158.584 416.233 158.71 415.953 158.962C415.682 159.214 415.547 159.527 415.547 159.9C415.547 160.32 415.71 160.656 416.037 160.908C416.364 161.16 416.821 161.286 417.409 161.286C417.969 161.286 418.45 161.16 418.851 160.908C419.262 160.647 419.56 160.273 419.747 159.788L419.971 160.474C419.784 160.959 419.458 161.347 418.991 161.636C418.534 161.925 417.955 162.07 417.255 162.07Z" fill="#56A3A6"/>
<path d="M93 54C116.639 54 137.579 65.5526 150.483 83.3193C147.696 84.2082 145.098 85.5206 142.767 87.1826C131.288 72.457 113.266 62.9688 93 62.9688C58.3281 62.9688 30.2207 90.7409 30.2207 125C30.2207 159.259 58.3281 187.031 93 187.031C108.906 187.031 123.43 181.185 134.493 171.55C135.905 174.098 137.702 176.402 139.807 178.385C127.31 189.35 110.932 196 93 196C53.7878 196 22 164.212 22 125C22 85.7878 53.7878 54 93 54Z" fill="#0F4C5C"/>
<path d="M91.7147 130.82L98.0815 124.841L140.774 178.183L137.154 181.04L133.865 183.292L91.7147 130.82Z" fill="#56A3A6"/>
<path d="M154.033 95.4696C153.996 97.0088 152.307 97.9309 150.992 97.1294L138.422 89.4653C137.108 88.6638 137.154 86.7399 138.505 86.0022L151.427 78.9481C152.779 78.2104 154.422 79.2122 154.385 80.7514L154.033 95.4696Z" fill="#0F4C5C"/>
</svg>
